<svg xmlns="http://www.w3.org/2000/svg" xmlns:xlink="http://www.w3.org/1999/xlink" width="75" zoomAndPan="magnify" viewBox="0 0 56.25 56.249997" height="75" preserveAspectRatio="xMidYMid meet" version="1.0"><path fill="#cccccc" d="M 42.664062 8.5625 L 3.964844 8.5625 L 3.964844 34.257812 C 3.964844 35.605469 5.074219 36.714844 6.421875 36.796875 L 25.773438 36.796875 C 25.613281 36.398438 25.457031 36.003906 25.296875 35.605469 L 6.421875 35.605469 C 5.710938 35.605469 5.074219 34.972656 5.074219 34.257812 L 5.074219 14.195312 L 43.933594 14.195312 L 43.933594 20.300781 L 45.121094 20.300781 L 45.121094 11.101562 C 45.121094 9.753906 44.011719 8.644531 42.664062 8.5625 Z M 42.664062 9.753906 C 43.378906 9.753906 44.011719 10.386719 44.011719 11.101562 L 44.011719 13.003906 L 5.15625 13.003906 L 5.15625 9.753906 " fill-opacity="1" fill-rule="nonzero"/><path fill="#cccccc" d="M 9.4375 19.03125 L 24.027344 19.03125 L 24.027344 20.222656 L 9.4375 20.222656 Z M 9.4375 19.03125 " fill-opacity="1" fill-rule="nonzero"/><path fill="#cccccc" d="M 9.4375 24.820312 L 24.027344 24.820312 L 24.027344 26.011719 L 9.4375 26.011719 Z M 9.4375 24.820312 " fill-opacity="1" fill-rule="nonzero"/><path fill="#cccccc" d="M 9.4375 24.820312 L 24.027344 24.820312 L 24.027344 26.011719 L 9.4375 26.011719 Z M 9.4375 24.820312 " fill-opacity="1" fill-rule="nonzero"/><path fill="#cccccc" d="M 39.492188 20.855469 C 32.59375 20.855469 27.042969 26.484375 27.042969 33.386719 C 27.042969 40.285156 32.671875 45.835938 39.570312 45.835938 C 46.46875 45.835938 52.019531 40.203125 52.019531 33.304688 C 52.019531 26.40625 46.390625 20.855469 39.492188 20.855469 Z M 39.492188 44.488281 C 33.386719 44.488281 28.390625 39.492188 28.390625 33.386719 C 28.390625 27.277344 33.386719 22.285156 39.492188 22.285156 C 45.597656 22.285156 50.59375 27.277344 50.59375 33.386719 C 50.59375 39.492188 45.675781 44.40625 39.492188 44.488281 Z M 39.492188 44.488281 " fill-opacity="1" fill-rule="nonzero"/><path fill="#cccccc" d="M 40.203125 25.296875 L 38.855469 25.296875 L 38.855469 34.019531 L 44.488281 34.019531 L 44.488281 32.671875 L 40.203125 32.671875 Z M 40.203125 25.296875 " fill-opacity="1" fill-rule="nonzero"/></svg>