<svg xmlns="http://www.w3.org/2000/svg" xmlns:xlink="http://www.w3.org/1999/xlink" width="40" zoomAndPan="magnify" viewBox="0 0 30 30.000001" height="40" preserveAspectRatio="xMidYMid meet" version="1.0"><defs><clipPath id="96d31d20af"><path d="M 1.9375 1.453125 L 18.570312 1.453125 L 18.570312 17.78125 L 1.9375 17.78125 Z M 1.9375 1.453125 " clip-rule="nonzero"/></clipPath><clipPath id="0a6ddc0821"><path d="M 13.15625 11.070312 L 29.515625 11.070312 L 29.515625 29.03125 L 13.15625 29.03125 Z M 13.15625 11.070312 " clip-rule="nonzero"/></clipPath></defs><g clip-path="url(#96d31d20af)"><path fill="#007dbd" d="M 16.792969 12.976562 L 17.796875 12.976562 L 17.796875 12.523438 L 16.792969 12.523438 Z M 16.792969 13.691406 L 17.796875 13.691406 L 17.796875 13.234375 L 16.792969 13.234375 Z M 18.183594 10.476562 C 18.019531 10.351562 17.816406 10.277344 17.59375 10.277344 L 2.914062 10.277344 C 2.695312 10.277344 2.488281 10.351562 2.324219 10.476562 L 2.324219 8.738281 C 2.324219 8.414062 2.589844 8.148438 2.914062 8.148438 L 17.59375 8.148438 C 17.917969 8.148438 18.183594 8.414062 18.183594 8.738281 Z M 18.183594 14.199219 C 18.183594 14.523438 17.917969 14.789062 17.59375 14.789062 L 15.726562 14.789062 L 15.726562 14.585938 L 16.335938 14.585938 L 16.335938 12.25 L 4.175781 12.25 L 4.175781 14.585938 L 4.78125 14.585938 L 4.78125 14.789062 L 2.914062 14.789062 C 2.589844 14.789062 2.324219 14.523438 2.324219 14.199219 L 2.324219 11.257812 C 2.324219 10.929688 2.589844 10.667969 2.914062 10.667969 L 17.59375 10.667969 C 17.917969 10.667969 18.183594 10.929688 18.183594 11.257812 Z M 15.535156 12.914062 L 4.976562 12.914062 C 4.867188 12.914062 4.78125 13 4.78125 13.109375 L 4.78125 14.195312 L 4.5625 14.195312 L 4.5625 12.636719 L 15.945312 12.636719 L 15.945312 14.195312 L 15.726562 14.195312 L 15.726562 13.109375 C 15.726562 13 15.640625 12.914062 15.535156 12.914062 Z M 15.339844 17.394531 L 5.167969 17.394531 L 5.167969 13.304688 L 15.339844 13.304688 Z M 4.367188 5.207031 L 4.78125 5.207031 L 4.78125 7.761719 L 4.367188 7.761719 Z M 5.167969 1.839844 L 15.339844 1.839844 L 15.339844 7.761719 L 5.167969 7.761719 Z M 15.726562 5.207031 L 16.140625 5.207031 L 16.140625 7.761719 L 15.726562 7.761719 Z M 17.59375 7.761719 L 16.527344 7.761719 L 16.527344 5.011719 C 16.527344 4.90625 16.441406 4.820312 16.335938 4.820312 L 15.726562 4.820312 L 15.726562 1.644531 C 15.726562 1.539062 15.640625 1.453125 15.535156 1.453125 L 4.976562 1.453125 C 4.867188 1.453125 4.78125 1.539062 4.78125 1.644531 L 4.78125 4.820312 L 4.175781 4.820312 C 4.066406 4.820312 3.980469 4.90625 3.980469 5.011719 L 3.980469 7.761719 L 2.914062 7.761719 C 2.375 7.761719 1.9375 8.199219 1.9375 8.738281 L 1.9375 14.199219 C 1.9375 14.738281 2.375 15.179688 2.914062 15.179688 L 4.78125 15.179688 L 4.78125 17.589844 C 4.78125 17.695312 4.867188 17.78125 4.976562 17.78125 L 15.535156 17.78125 C 15.640625 17.78125 15.726562 17.695312 15.726562 17.589844 L 15.726562 15.179688 L 17.59375 15.179688 C 18.132812 15.179688 18.574219 14.738281 18.574219 14.199219 L 18.574219 8.738281 C 18.570312 8.199219 18.132812 7.761719 17.59375 7.761719 Z M 16.792969 14.402344 L 17.796875 14.402344 L 17.796875 13.949219 L 16.792969 13.949219 L 16.792969 14.402344 " fill-opacity="1" fill-rule="nonzero"/></g><g clip-path="url(#0a6ddc0821)"><path fill="#007dbd" d="M 29.320312 27.964844 L 25.5625 22.996094 C 25.753906 22.785156 25.933594 22.566406 26.097656 22.335938 C 26.261719 22.101562 26.410156 21.863281 26.542969 21.613281 C 26.679688 21.359375 26.796875 21.101562 26.894531 20.835938 C 26.996094 20.570312 27.082031 20.300781 27.148438 20.023438 C 27.214844 19.75 27.261719 19.46875 27.292969 19.1875 C 27.324219 18.90625 27.335938 18.621094 27.332031 18.335938 C 27.328125 18.054688 27.304688 17.769531 27.261719 17.488281 C 27.222656 17.210938 27.164062 16.933594 27.085938 16.65625 C 27.011719 16.382812 26.917969 16.117188 26.808594 15.855469 C 26.699219 15.59375 26.570312 15.339844 26.429688 15.09375 C 26.285156 14.847656 26.128906 14.613281 25.957031 14.386719 C 25.785156 14.160156 25.597656 13.945312 25.398438 13.746094 C 25.199219 13.542969 24.988281 13.355469 24.765625 13.179688 C 24.542969 13.003906 24.308594 12.84375 24.0625 12.695312 C 23.820312 12.550781 23.566406 12.421875 23.308594 12.308594 C 23.046875 12.195312 22.78125 12.097656 22.507812 12.019531 C 22.234375 11.9375 21.960938 11.875 21.679688 11.832031 C 21.398438 11.789062 21.117188 11.761719 20.832031 11.753906 C 20.546875 11.742188 20.265625 11.753906 19.980469 11.78125 C 19.699219 11.808594 19.417969 11.851562 19.144531 11.914062 C 18.867188 11.976562 18.59375 12.058594 18.328125 12.15625 C 18.058594 12.253906 17.800781 12.367188 17.546875 12.496094 C 17.296875 12.628906 17.054688 12.773438 16.820312 12.933594 C 16.585938 13.09375 16.363281 13.269531 16.152344 13.460938 C 15.941406 13.648438 15.742188 13.851562 15.554688 14.066406 C 15.367188 14.28125 15.199219 14.507812 15.039062 14.742188 C 14.882812 14.980469 14.742188 15.226562 14.617188 15.480469 C 14.488281 15.734375 14.378906 15.996094 14.289062 16.265625 C 14.195312 16.535156 14.117188 16.804688 14.0625 17.085938 C 14.003906 17.363281 13.960938 17.644531 13.941406 17.925781 C 13.917969 18.210938 13.914062 18.492188 13.925781 18.777344 C 13.941406 19.058594 13.972656 19.34375 14.019531 19.621094 C 14.070312 19.902344 14.136719 20.175781 14.222656 20.449219 C 14.304688 20.71875 14.40625 20.984375 14.527344 21.242188 C 14.644531 21.5 14.777344 21.75 14.925781 21.992188 C 15.078125 22.234375 15.242188 22.464844 15.421875 22.683594 C 15.597656 22.90625 15.792969 23.113281 15.996094 23.308594 C 16.203125 23.503906 16.421875 23.6875 16.648438 23.855469 C 16.878906 24.023438 17.117188 24.175781 17.363281 24.316406 C 17.613281 24.453125 17.867188 24.574219 18.132812 24.679688 C 18.394531 24.785156 18.664062 24.875 18.9375 24.945312 C 19.214844 25.019531 19.492188 25.070312 19.773438 25.109375 C 20.054688 25.144531 20.339844 25.164062 20.621094 25.164062 C 20.90625 25.164062 21.191406 25.144531 21.472656 25.109375 C 21.753906 25.074219 22.03125 25.019531 22.308594 24.949219 C 22.582031 24.878906 22.851562 24.789062 23.113281 24.683594 C 23.378906 24.578125 23.632812 24.457031 23.882812 24.320312 C 24.132812 24.179688 24.371094 24.027344 24.597656 23.859375 L 28.292969 28.746094 C 28.398438 28.886719 28.542969 28.972656 28.71875 28.996094 C 28.898438 29.019531 29.058594 28.980469 29.199219 28.871094 C 29.34375 28.761719 29.425781 28.621094 29.453125 28.441406 C 29.476562 28.265625 29.433594 28.105469 29.328125 27.960938 Z M 15.007812 18.453125 C 15.007812 18.085938 15.042969 17.71875 15.113281 17.359375 C 15.1875 16.996094 15.292969 16.644531 15.433594 16.304688 C 15.574219 15.960938 15.75 15.636719 15.953125 15.332031 C 16.160156 15.023438 16.390625 14.742188 16.652344 14.480469 C 16.914062 14.21875 17.199219 13.984375 17.503906 13.78125 C 17.8125 13.574219 18.136719 13.402344 18.476562 13.261719 C 18.816406 13.121094 19.167969 13.011719 19.53125 12.941406 C 19.894531 12.867188 20.257812 12.832031 20.628906 12.832031 C 20.996094 12.832031 21.363281 12.867188 21.722656 12.941406 C 22.085938 13.011719 22.4375 13.121094 22.777344 13.261719 C 23.121094 13.402344 23.445312 13.574219 23.75 13.78125 C 24.058594 13.984375 24.34375 14.21875 24.601562 14.480469 C 24.863281 14.738281 25.097656 15.023438 25.300781 15.332031 C 25.507812 15.636719 25.679688 15.960938 25.820312 16.304688 C 25.960938 16.644531 26.070312 16.996094 26.140625 17.359375 C 26.214844 17.71875 26.25 18.085938 26.25 18.453125 C 26.25 18.824219 26.214844 19.1875 26.140625 19.550781 C 26.070312 19.914062 25.960938 20.265625 25.820312 20.605469 C 25.679688 20.945312 25.507812 21.269531 25.300781 21.578125 C 25.097656 21.882812 24.863281 22.167969 24.601562 22.429688 C 24.339844 22.691406 24.058594 22.921875 23.75 23.128906 C 23.445312 23.332031 23.121094 23.507812 22.777344 23.648438 C 22.4375 23.789062 22.085938 23.894531 21.722656 23.96875 C 21.363281 24.039062 20.996094 24.074219 20.628906 24.074219 C 20.257812 24.074219 19.890625 24.039062 19.53125 23.96875 C 19.167969 23.894531 18.816406 23.789062 18.476562 23.648438 C 18.136719 23.507812 17.8125 23.332031 17.503906 23.128906 C 17.199219 22.921875 16.914062 22.691406 16.652344 22.429688 C 16.390625 22.167969 16.160156 21.882812 15.953125 21.578125 C 15.75 21.269531 15.574219 20.945312 15.433594 20.605469 C 15.292969 20.265625 15.1875 19.914062 15.113281 19.550781 C 15.042969 19.191406 15.007812 18.824219 15.007812 18.453125 Z M 15.007812 18.453125 " fill-opacity="1" fill-rule="nonzero"/></g></svg>