<svg xmlns="http://www.w3.org/2000/svg" xmlns:xlink="http://www.w3.org/1999/xlink" width="75" zoomAndPan="magnify" viewBox="0 0 56.25 56.249997" height="75" preserveAspectRatio="xMidYMid meet" version="1.0"><path fill="#cccccc" d="M 35.84375 14.589844 C 35.84375 14.828125 35.765625 15.066406 35.683594 15.226562 C 35.367188 15.859375 29.261719 26.644531 29.261719 26.644531 C 29.101562 27.042969 28.707031 27.277344 28.308594 27.277344 C 27.914062 27.277344 27.515625 26.960938 27.277344 26.644531 C 27.277344 26.644531 21.253906 15.859375 20.855469 15.226562 C 20.777344 15.066406 20.695312 14.828125 20.695312 14.589844 C 20.695312 13.957031 21.09375 13.640625 21.886719 13.640625 L 25.058594 13.640625 L 25.058594 6.742188 L 31.402344 6.742188 L 31.402344 13.640625 L 34.574219 13.640625 C 35.445312 13.558594 35.84375 13.957031 35.84375 14.589844 M 36.953125 14.589844 C 36.953125 13.402344 36.003906 12.53125 34.890625 12.449219 C 34.8125 12.449219 34.734375 12.449219 34.734375 12.449219 L 32.671875 12.449219 L 32.671875 5.628906 L 24.027344 5.628906 L 24.027344 12.53125 L 21.886719 12.53125 C 20.695312 12.449219 19.746094 13.242188 19.585938 14.433594 C 19.585938 14.511719 19.585938 14.589844 19.585938 14.671875 C 19.585938 15.066406 19.667969 15.464844 19.902344 15.859375 C 20.222656 16.496094 25.929688 26.566406 26.328125 27.277344 C 26.722656 27.992188 27.4375 28.546875 28.308594 28.546875 C 29.183594 28.546875 29.894531 28.070312 30.292969 27.277344 C 30.6875 26.566406 36.320312 16.496094 36.714844 15.859375 C 36.875 15.382812 36.953125 14.988281 36.953125 14.589844 Z M 36.953125 14.589844 " fill-opacity="1" fill-rule="nonzero"/><path fill="#cccccc" d="M 28.308594 28.546875 C 27.4375 28.546875 26.566406 27.992188 26.167969 27.199219 C 26.089844 27.121094 20.140625 16.496094 19.824219 15.78125 C 19.585938 15.382812 19.507812 14.988281 19.507812 14.589844 C 19.507812 13.324219 20.539062 12.292969 21.726562 12.292969 C 21.808594 12.292969 21.886719 12.292969 21.964844 12.292969 L 23.871094 12.292969 L 23.871094 5.472656 L 32.75 5.472656 L 32.75 12.371094 L 34.652344 12.371094 C 35.921875 12.292969 36.953125 13.164062 37.113281 14.433594 C 37.113281 14.511719 37.113281 14.589844 37.113281 14.671875 C 37.113281 15.066406 37.03125 15.542969 36.796875 15.859375 C 36.476562 16.496094 31.402344 25.457031 30.449219 27.277344 C 30.054688 27.992188 29.183594 28.546875 28.308594 28.546875 Z M 21.964844 12.6875 C 20.933594 12.609375 19.984375 13.402344 19.902344 14.433594 C 19.902344 14.511719 19.902344 14.511719 19.902344 14.589844 C 19.902344 14.988281 19.984375 15.304688 20.140625 15.621094 C 20.539062 16.335938 26.484375 26.882812 26.566406 27.042969 C 26.882812 27.753906 27.597656 28.152344 28.390625 28.230469 C 29.183594 28.230469 29.894531 27.753906 30.214844 27.042969 L 30.214844 26.960938 C 31.242188 25.21875 36.238281 16.175781 36.558594 15.621094 C 36.714844 15.304688 36.796875 14.910156 36.796875 14.589844 C 36.796875 13.558594 35.921875 12.6875 34.8125 12.6875 C 34.8125 12.6875 34.734375 12.6875 34.734375 12.6875 L 32.433594 12.6875 L 32.433594 5.789062 L 24.1875 5.789062 L 24.1875 12.6875 Z M 28.308594 27.515625 C 27.835938 27.515625 27.359375 27.199219 27.121094 26.722656 C 26.882812 26.328125 21.09375 15.9375 20.777344 15.304688 C 20.695312 15.066406 20.617188 14.828125 20.617188 14.589844 C 20.617188 13.878906 21.171875 13.402344 21.964844 13.402344 L 24.980469 13.402344 L 24.980469 6.582031 L 31.640625 6.582031 L 31.640625 13.480469 L 34.652344 13.480469 C 35.289062 13.402344 35.921875 13.878906 36.003906 14.511719 C 36.003906 14.589844 36.003906 14.589844 36.003906 14.671875 C 36.003906 14.910156 35.921875 15.144531 35.84375 15.382812 C 35.527344 16.019531 29.65625 26.328125 29.421875 26.804688 C 29.261719 27.121094 28.785156 27.4375 28.308594 27.515625 Z M 21.964844 13.796875 C 21.332031 13.796875 20.933594 14.117188 20.933594 14.589844 C 20.933594 14.75 21.015625 14.988281 21.09375 15.144531 C 21.410156 15.78125 27.4375 26.40625 27.515625 26.566406 C 27.675781 27.042969 28.230469 27.277344 28.707031 27.121094 C 28.945312 27.042969 29.183594 26.804688 29.261719 26.566406 C 29.339844 26.40625 35.289062 15.78125 35.683594 15.144531 C 35.765625 14.988281 35.84375 14.828125 35.84375 14.589844 C 35.84375 14.035156 35.445312 13.796875 34.8125 13.796875 L 31.402344 13.796875 L 31.402344 6.898438 L 25.457031 6.898438 L 25.457031 13.796875 Z M 21.964844 13.796875 " fill-opacity="1" fill-rule="nonzero"/><path fill="#cccccc" d="M 44.25 37.90625 L 44.25 20.378906 C 44.25 19.03125 43.21875 18 41.871094 18 L 38.144531 18 L 37.351562 19.347656 L 41.789062 19.347656 C 42.347656 19.347656 42.820312 19.824219 42.820312 20.378906 L 42.820312 37.429688 L 12.371094 37.429688 L 12.371094 19.269531 L 19.03125 19.269531 L 18.238281 17.921875 L 11.023438 17.921875 L 11.023438 37.824219 L 7.769531 45.121094 C 7.214844 46.3125 7.691406 47.738281 8.882812 48.292969 C 9.199219 48.453125 9.59375 48.53125 9.914062 48.53125 L 49.007812 48.53125 Z M 9.039062 46.707031 C 8.800781 46.390625 8.800781 45.992188 8.960938 45.675781 L 12.054688 38.777344 L 43.140625 38.777344 L 46.945312 47.183594 L 9.992188 47.183594 C 9.59375 47.183594 9.277344 46.945312 9.039062 46.707031 Z M 9.039062 46.707031 " fill-opacity="1" fill-rule="nonzero"/></svg>