<svg xmlns="http://www.w3.org/2000/svg" xmlns:xlink="http://www.w3.org/1999/xlink" width="75" zoomAndPan="magnify" viewBox="0 0 56.25 56.249997" height="75" preserveAspectRatio="xMidYMid meet" version="1.0"><defs><clipPath id="c6e3c9e990"><path d="M 0 0 L 55 0 L 55 55.511719 L 0 55.511719 Z M 0 0 " clip-rule="nonzero"/></clipPath></defs><g clip-path="url(#c6e3c9e990)"><path fill="#0c95d3" d="M 27.429688 55.511719 C 42.578125 55.511719 54.855469 43.230469 54.855469 28.082031 C 54.855469 12.933594 42.578125 0.652344 27.429688 0.652344 C 12.28125 0.652344 0 12.933594 0 28.082031 C 0 33.835938 1.769531 39.175781 4.796875 43.585938 C 4.808594 44.703125 4.480469 45.949219 4.210938 46.972656 C 4.117188 47.324219 4.03125 47.648438 3.96875 47.929688 C 3.878906 48.339844 3.6875 48.890625 3.46875 49.507812 C 2.828125 51.339844 1.984375 53.742188 3.066406 54.609375 C 4.871094 56.050781 6.496094 55.148438 6.496094 55.148438 C 6.496094 55.148438 10.464844 52.984375 11.546875 52.261719 C 12.050781 51.925781 12.710938 51.707031 13.378906 51.644531 C 15.5 52.910156 17.753906 53.875 20.140625 54.53125 C 22.523438 55.1875 24.953125 55.515625 27.429688 55.511719 Z M 27.429688 55.511719 " fill-opacity="1" fill-rule="evenodd"/></g><path stroke-linecap="round" transform="matrix(0.881109, 0, 0, 0.881109, 0.0000015, -0.000000986842)" fill="none" stroke-linejoin="round" d="M 15.037867 43.743706 C 15.037867 43.743706 21.603634 50.579907 31.973202 50.579907 C 42.34277 50.579907 47.747004 43.739273 47.747004 43.739273 " stroke="#ffffff" stroke-width="6" stroke-opacity="1" stroke-miterlimit="4"/></svg>